<svg xmlns="http://www.w3.org/2000/svg" viewBox="0 0 100 100">
  <!-- Troweled Earth Tree Logo - Simplified -->
  <circle cx="50" cy="50" r="45" fill="none" stroke="currentColor" stroke-width="2"/>
  <g fill="currentColor">
    <!-- Trunk -->
    <path d="M48 85 L48 55 Q48 50 50 45 Q52 50 52 55 L52 85 Z"/>
    <!-- Main branches -->
    <path d="M50 45 Q35 35 25 25 Q30 30 35 28 Q40 35 50 40"/>
    <path d="M50 45 Q65 35 75 25 Q70 30 65 28 Q60 35 50 40"/>
    <path d="M50 40 Q30 25 20 20 Q28 22 32 18 Q38 28 50 35"/>
    <path d="M50 40 Q70 25 80 20 Q72 22 68 18 Q62 28 50 35"/>
    <!-- Smaller branches -->
    <path d="M50 50 Q40 45 30 40 Q38 42 42 38 Q45 45 50 48"/>
    <path d="M50 50 Q60 45 70 40 Q62 42 58 38 Q55 45 50 48"/>
    <path d="M48 60 Q38 55 28 50 Q35 52 40 48"/>
    <path d="M52 60 Q62 55 72 50 Q65 52 60 48"/>
    <!-- Top branches -->
    <path d="M50 35 Q45 20 35 10 Q42 15 45 12 Q48 22 50 30"/>
    <path d="M50 35 Q55 20 65 10 Q58 15 55 12 Q52 22 50 30"/>
    <path d="M50 30 Q40 15 30 8 Q38 12 42 8"/>
    <path d="M50 30 Q60 15 70 8 Q62 12 58 8"/>
  </g>
</svg>
